<?xml version="1.0" encoding="UTF-8"?><svg id="Layer_1" xmlns="http://www.w3.org/2000/svg" width="4.96in" height="3.25in" xmlns:xlink="http://www.w3.org/1999/xlink" viewBox="0 0 356.87 234.15"><defs><linearGradient id="linear-gradient" x1="105.93" y1="-27.89" x2="289.11" y2="235.66" gradientUnits="userSpaceOnUse"><stop offset="0" stop-color="#ea8d23"/><stop offset=".5" stop-color="#a12357"/><stop offset="1" stop-color="#272b55"/></linearGradient></defs><path d="M143.09,67.84c-32.57-.25-63.96,20.34-76.6,50.42-23.4,54.54,17.44,115.62,76.6,115.8,33.41.64,65.74-20.62,78.29-51.64,22.94-55.57-18.92-114.99-78.29-114.57ZM83.09,193.55c-4.2-4.04-5.78-11.51-3.53-16.68,2.26-5.17,7.5-6.08,11.7-2.04,4.2,4.04,5.78,11.51,3.53,16.68-2.26,5.17-7.5,6.08-11.7,2.04ZM99.43,205.28c-2.31.24-4.6-1.31-5.11-3.46-.51-2.15.95-4.09,3.26-4.33,2.31-.24,4.6,1.31,5.11,3.46.51,2.15-.95,4.09-3.26,4.33ZM152.03,222.83c-14.72,3.83-30.68-.86-42.91-9.48-4.62-3.71,1.12-10.31,5.43-6.22,9.82,9.18,23.44,15.21,37.1,13.67,4.64-.5,9.21-1.92,13.53-3.98-3.97,2.65-8.4,4.78-13.15,6.01ZM131.07,180.12c-39.73.12-59.01-48.78-30.99-76.33,27.92-26.81,73.11-7.41,73.85,30.99.56,23.9-18.4,45.13-42.86,45.34ZM42.8,25.32C19.16,25.32,0,44.48,0,68.11s19.16,42.8,42.8,42.8,42.8-19.16,42.8-42.8-19.16-42.8-42.8-42.8ZM40.69,38.73c-1.21,1.53-3.62,1.91-5.38.85-1.76-1.06-2.19-3.15-.98-4.68,1.21-1.53,3.62-1.91,5.38-.85,1.75,1.06,2.19,3.15.98,4.68ZM64.56,50.32c-4.72-4.08-10.73-6.78-16.85-7.7-6.19-.88-4.18-9.91,1.81-8.06,13.88,4.8,25.18,17.76,24.45,32.89-1.24-6.64-4.26-12.79-9.41-17.13ZM352.34,56.22c-11.12-19.25-35.58-22.66-52.34-8.77-7.88,6.18-11.96,16.07-13.59,25.63-1.66,9.35-3.07,18.49-6.46,27.34-1.52,3.97-3.21,8.82-7.27,10.52-4.19,1.57-8.32-2.1-9.92-5.89-3.22-8.78-5.06-18.26-9.42-26.66-3.52-8.78-7.32-17.46-11.85-25.79-8.9-16.67-21.64-32.1-39.1-40.22C181.48,2.67,154.6.46,132.52,7.3c-18.26,6.05-34.42,20.66-37.54,40.27-1.29,5.79-.39,13.29,4.65,17.41,4.19,3.98,9.35,4.1,14.36,1.88,20.82-7.27,44.31-8.81,64.76.37,17.04,7.41,31.44,20.58,42.09,35.61,5.33,7.63,8.17,16.63,10.72,25.51,5.32,18.23,5.1,36.92,5.2,55.84.46,20.64,4.28,41.22,26.81,47.83,20.4,5.93,41.94-.44,50.43-21.11,5.96-13.86,4.98-28.6,4.74-43.05-.13-7.05-.5-21.31-.62-28.36-.12-11.28-1.95-22.99,10.61-27.49,20.39-8.64,36.27-34.96,23.6-55.8ZM283.91,218.35c-5.29,2.51-11.09,3.79-16.98,3.45-5.93-.7-4.5-9.41,1.35-8.16,9.04,1.52,18.7-1.56,24.8-8.66,6.52-7.5,9.03-17.94,9.93-27.78,1.02,15.61-3.54,34-19.1,41.16ZM100.35,10.69c-3.47-8.7-13.34-12.94-22.04-9.47-8.7,3.47-12.94,13.34-9.47,22.04,3.47,8.7,13.34,12.94,22.04,9.47,8.7-3.47,12.94-13.34,9.47-22.04ZM86.59,5.98c-.63.44-1.59.32-2.14-.28-.55-.6-.48-1.44.16-1.89.63-.44,1.59-.32,2.14.28.55.6.48,1.44-.16,1.89ZM92.79,11.19c-1.55-.55-2.82-2.37-2.84-4.06-.02-1.7,1.21-2.63,2.76-2.08,1.55.55,2.82,2.37,2.84,4.06.02,1.7-1.21,2.63-2.76,2.08Z" fill="url(#linear-gradient)"/></svg>