<?xml version="1.0" encoding="UTF-8"?>
<svg id="Layer_1" xmlns="http://www.w3.org/2000/svg" version="1.1" xmlns:xlink="http://www.w3.org/1999/xlink" viewBox="0 0 120.9 59.3">
  <!-- Generator: Adobe Illustrator 30.1.0, SVG Export Plug-In . SVG Version: 2.1.1 Build 136)  -->
  <defs>
    <style>
      .st0 {
        fill: url(#linear-gradient2);
      }

      .st1 {
        fill: #fff;
      }

      .st2 {
        fill: url(#linear-gradient1);
      }

      .st3 {
        fill: #0475b3;
      }

      .st4 {
        fill: url(#linear-gradient3);
      }

      .st5 {
        display: none;
        fill: #231f20;
      }

      .st6 {
        fill: url(#linear-gradient);
      }
    </style>
    <linearGradient id="linear-gradient" x1="43.8" y1="22.9" x2="67.1" y2="22.9" gradientUnits="userSpaceOnUse">
      <stop offset="0" stop-color="#03bbd7"/>
      <stop offset="1" stop-color="#057aa9"/>
    </linearGradient>
    <linearGradient id="linear-gradient1" x1="48.7" y1="18.4" x2="85.6" y2="18.4" xlink:href="#linear-gradient"/>
    <linearGradient id="linear-gradient2" x1="35.3" y1="11.1" x2="46.7" y2="11.1" xlink:href="#linear-gradient"/>
    <linearGradient id="linear-gradient3" x1="183" y1="-153.4" x2="187.5" y2="-153.4" gradientTransform="translate(-164 -111.4) rotate(68.3)" xlink:href="#linear-gradient"/>
  </defs>
  <rect class="st5" x="-11.7" y="-41.7" width="144" height="144"/>
  <g>
    <g>
      <path class="st1" d="M1.2,46c0-3.6,2.6-5.6,6.8-5.6s6.8,2.1,6.8,5.6-2.6,5.6-6.8,5.6-6.8-2.1-6.8-5.6ZM12.2,46c0-2.3-1.7-3.6-4.3-3.6s-4.3,1.3-4.3,3.6,1.6,3.6,4.3,3.6,4.3-1.3,4.3-3.6Z"/>
      <path class="st1" d="M26.2,47.8l2.2,1.1c-1,1.5-3.1,2.7-5.8,2.7-4,0-6.6-2.1-6.6-5.6s2.6-5.6,6.7-5.6,4.7,1.2,5.7,2.7l-2.2,1.1c-.8-1.2-1.9-1.7-3.5-1.7-2.5,0-4.2,1.2-4.2,3.6s1.7,3.6,4.2,3.6,2.7-.5,3.5-1.7Z"/>
      <path class="st1" d="M40.7,49.3v2h-11v-10.6h10.8v2h-8.4v2.2h7v2h-7v2.3h8.5Z"/>
      <path class="st1" d="M52.1,49h-6.4l-1.1,2.2h-2.6l5.6-10.6h2.7l5.6,10.6h-2.6l-1.1-2.2ZM51.1,47.1l-2.2-4.3-2.2,4.3h4.4Z"/>
      <path class="st1" d="M69.3,40.7v10.6h-2.1l-7.6-7.7v7.7h-2.4v-10.6h2.6l7.2,7.3v-7.3h2.4Z"/>
      <path class="st1" d="M73.3,40.7l4,8.2,4-8.2h2.6l-5.4,10.6h-2.6l-5.4-10.6h2.7Z"/>
      <path class="st1" d="M85.2,51.3v-10.6h2.4v10.6h-2.4Z"/>
      <path class="st1" d="M99.9,49.3v2h-11v-10.6h10.8v2h-8.4v2.2h7v2h-7v2.3h8.5Z"/>
      <path class="st1" d="M119.5,40.7l-3.9,10.6h-2.5l-2.8-8-2.8,8h-2.4l-3.9-10.6h2.6l2.6,7.9,2.8-7.9h2.4l2.8,7.9,2.6-7.9h2.5Z"/>
    </g>
    <g>
      <g>
        <path class="st6" d="M55.5,11.2c-6.4,0-11.7,5.2-11.7,11.7s5.2,11.7,11.7,11.7,11.7-5.2,11.7-11.7-5.2-11.7-11.7-11.7ZM53.8,27.2c-3.6,0-6.5-2.9-6.5-6.5s2.9-6.5,6.5-6.5,6.5,2.9,6.5,6.5-2.9,6.5-6.5,6.5Z"/>
        <g>
          <path class="st3" d="M55.5,11.3c-8.2,0-13.8,8.5-10.6,16,3.1,7.4,12.9,9.4,18.6,3.6,7-7.1,2.1-19.5-8-19.6h0ZM55.5,11.2c6.4-.1,12.1,5.2,12.1,11.7,0,6.6-5.5,12.1-12.1,12-4.7,0-9.3-3-11-7.4-3.2-7.8,2.6-16.2,11-16.3h0Z"/>
          <path class="st3" d="M53.8,27.3c-4.7,0-8-4.7-6.2-9.1,2.3-5.6,10.2-5.6,12.6,0,1.9,4.5-1.6,9.3-6.4,9.2h0ZM53.8,27.2c5.5-.1,8.1-6.9,4.3-10.8-3.1-3.2-8.4-2.1-10.1,1.9-1.8,4.1,1.3,8.9,5.8,8.9h0Z"/>
        </g>
      </g>
      <g>
        <path class="st2" d="M71.2,12.7c-2.1-5.3-4.5-8.7-9.1-10s-6-.9-8.5.2c-3.8,1.6-4.6,4.3-4.8,5.8,0,.7,0,1.4.6,1.9.5.5,1,.6,1.6.4,3.7-1.3,7.2-1.5,10.8.4s4.9,3.8,5.9,6.1c.9,2.3,1.4,4.6,1.5,7.1s-.2,5.9,1.2,8,4.8,2.5,7.1,1.4c1.3-.7,2.2-2,2.5-3.5s.3-2.9.3-4.4c0-1.8,0-3.6-.1-5.4,0-1.1,0-2.2.8-3,.4-.3.9-.5,1.3-.8,1.2-.6,2.1-1.5,2.8-2.7.4-.7.7-1.4.7-2.2.1-2.1-1.5-4.2-3.5-4.6s-4.3.7-5.3,2.5c-.6,1.2-.7,2.5-1,3.7-.2.8-.4,1.7-.8,2.4-.2.6-.6,1.2-1.2,1.3-.5,0-.9-.3-1.2-.7s-.4-.9-.5-1.4c-.5-1.8-.7-2.3-.9-2.8"/>
        <path class="st3" d="M71.1,12.7c-1.5-3.7-3.5-7.6-7.3-9.3-2.4-1.1-5.2-1.4-7.8-1.1-2.6.3-5.2,1.7-6.4,4.1-.6,1.3-1.3,3.5.3,4.3.4.2.9,0,1.3,0,.5-.2,1-.3,1.5-.4,1.3-.3,2.7-.5,4.1-.5,2.8.1,5.4,1.3,7.5,3.1,1.5,1.3,3,2.9,3.7,4.8.8,1.9,1.2,3.9,1.4,6,.1,1.4,0,2.7.1,4.1,0,1.9.2,4.1,1.8,5.4,1.5,1.2,3.7,1.4,5.4.8,1.9-.6,2.8-2.6,3.1-4.4.2-1.9,0-4.1,0-6,0-1.3-.2-2.8,0-4.1,0-.7.4-1.6,1-2,.6-.5,1.2-.6,1.8-1,1.6-1,2.8-2.8,2.8-4.7,0-1.9-1.6-3.6-3.5-3.9-1.9-.3-3.9.7-4.8,2.4-.6,1.2-.7,2.5-1,3.8-.2.7-.4,1.3-.6,2-.3.6-.6,1.4-1.3,1.7-.8.3-1.5-.4-1.7-1-.4-1.3-.6-2.6-1.2-3.9,0,0,0,0,0,0,.6,1.2.9,2.5,1.3,3.8.2.5.8,1.1,1.4.8.6-.2.8-.9,1-1.5.5-1.3.7-2.6.9-3.9.2-1.4.8-2.8,1.9-3.7,1.6-1.4,4.2-1.7,6-.3,1.2.8,2,2.2,2.1,3.7,0,2.2-1.3,4.2-3.1,5.4-.5.4-1.2.6-1.7,1-.9.8-.7,2.3-.7,3.5,0,1,0,3,0,4,0,2.1.2,4.2-.7,6.1-.6,1.3-1.6,2.5-3,2.9-2,.7-4.4.4-6.1-.9-1.7-1.4-1.9-3.8-1.9-5.8,0-2.7,0-5.4-.7-8-.4-1.3-.8-2.5-1.5-3.6-1.5-2.1-3.6-4-6-5.1-2.9-1.3-6.3-1.1-9.2,0-1,.4-1.8.2-2.4-.7-.4-.6-.4-1.4-.3-2.1.4-2.8,2.7-4.9,5.4-5.7,3.1-1,7-.7,10,.7,2.5,1.2,4.3,3.4,5.6,5.7.6,1.2,1.2,2.4,1.7,3.7h0Z"/>
      </g>
      <circle class="st3" cx="41.2" cy="11.2" r="6.1"/>
      <circle class="st0" cx="41" cy="11.1" r="5.7"/>
      <path class="st1" d="M48.1,26.5c-.6-.6-1.3-.4-1.7.3s0,1.8.5,2.4,1.3.4,1.7-.3,0-1.8-.5-2.4Z"/>
      <path class="st1" d="M51.4,31.1c1.4,1.3,3.3,2.2,5.3,1.9.7,0,1.3-.3,1.9-.6-.6.4-1.2.7-1.9.9-2.1.5-4.4-.1-6.1-1.4-.7-.5.2-1.5.8-.9h0Z"/>
      <path class="st1" d="M42.1,6.5c2,.7,3.6,2.5,3.5,4.7-.2-.9-.6-1.8-1.3-2.4-.7-.6-1.5-1-2.4-1.1-.9-.1-.6-1.4.3-1.1h0Z"/>
      <path class="st1" d="M49.7,30.2c0-.3-.4-.5-.7-.5s-.5.3-.5.6.4.5.7.5.5-.3.5-.6Z"/>
      <path class="st1" d="M40.9,7c-.2.2-.5.3-.8.1s-.3-.4-.1-.7.5-.3.8-.1.3.4.1.7Z"/>
      <path class="st1" d="M73.3,32c1.3.2,2.7-.2,3.5-1.2.9-1.1,1.3-2.6,1.4-4,.1,2.2-.5,4.8-2.7,5.9-.8.4-1.6.5-2.4.5-.8-.1-.6-1.3.2-1.2h0Z"/>
      <circle class="st3" cx="47.1" cy="3.9" r="2.4"/>
      <circle class="st4" cx="47.1" cy="3.9" r="2.3"/>
      <ellipse class="st1" cx="47.3" cy="2.2" rx=".2" ry=".2" transform="translate(31.7 46.9) rotate(-73.4)"/>
      <path class="st1" d="M48.7,2.8c0,.2-.2.4-.4.3s-.4-.3-.4-.6.2-.4.4-.3.4.3.4.6Z"/>
    </g>
    <g>
      <path class="st1" d="M52.1,54.2l-1.4,3.8h-.7l-1.1-3.1-1.1,3.1h-.7l-1.4-3.8h.7l1.1,3.1,1.1-3.1h.6l1.1,3.1,1.1-3.1h.7Z"/>
      <path class="st1" d="M57,57.4v.6h-3.8v-3.8h3.8v.6h-3.1v1h2.6v.6h-2.6v1.1h3.2Z"/>
      <path class="st1" d="M62.3,57c0,.7-.6,1.1-1.5,1.1h-2.7v-3.8h2.6c.8,0,1.4.3,1.4,1s-.3.8-.8.9c.6,0,1.1.3,1.1.9ZM58.7,55.8h1.8c.5,0,.9-.1.9-.5s-.3-.5-.9-.5h-1.8v1.1ZM61.6,56.9c0-.4-.3-.6-.9-.6h-2v1.1h2c.6,0,.9-.1.9-.6Z"/>
      <path class="st1" d="M68,56.9l.6.3c-.4.6-1.1,1-2,1-1.4,0-2.3-.8-2.3-2s.9-2,2.4-2,1.6.4,2,1l-.6.3c-.3-.5-.8-.7-1.4-.7-1,0-1.7.5-1.7,1.5s.7,1.5,1.7,1.5,1.1-.2,1.4-.7Z"/>
      <path class="st1" d="M69.3,56.1c0-1.3.9-2,2.4-2s2.4.8,2.4,2-.9,2-2.4,2-2.4-.8-2.4-2ZM73.4,56.1c0-.9-.7-1.5-1.7-1.5s-1.7.5-1.7,1.5.7,1.5,1.7,1.5,1.7-.5,1.7-1.5Z"/>
      <path class="st1" d="M74.1,57.7c0-.2.2-.4.4-.4s.4.2.4.4-.2.4-.4.4-.4-.2-.4-.4Z"/>
    </g>
  </g>
</svg>